<svg width="26" height="26" viewBox="0 0 26 26" fill="none" xmlns="http://www.w3.org/2000/svg">
<circle cx="13" cy="13" r="13" fill="#B3B3B3"/>
<g clip-path="url(#clip0_5177_254)">
<path d="M6.48073 10.498V10.5453C6.48073 11.1065 6.48073 11.3871 6.61582 11.6166C6.7509 11.8462 6.99617 11.9824 7.48671 12.255L8.00391 12.5423C7.64754 11.3374 7.52863 10.0428 7.48462 8.93567C7.48279 8.8882 7.48064 8.84015 7.47849 8.79159L7.47699 8.75757C7.05237 8.90502 6.81401 9.01496 6.6653 9.2213C6.48067 9.47742 6.48067 9.81762 6.48073 10.498Z" fill="white"/>
<path d="M19.5195 10.4979V10.5451C19.5195 11.1063 19.5195 11.3869 19.3844 11.6165C19.2493 11.846 19.0041 11.9823 18.5135 12.2548L17.996 12.5423C18.3525 11.3374 18.4714 10.0427 18.5153 8.93551C18.5172 8.88804 18.5194 8.83999 18.5215 8.79143L18.523 8.75732C18.9478 8.90482 19.1862 9.01476 19.335 9.22114C19.5196 9.47726 19.5196 9.81746 19.5195 10.4979Z" fill="white"/>
<path fill-rule="evenodd" clip-rule="evenodd" d="M10.1459 6.70653C10.8787 6.58289 11.8367 6.48047 12.9994 6.48047C14.1623 6.48047 15.1202 6.58289 15.8531 6.70653C16.5955 6.83179 16.9667 6.89442 17.2768 7.2764C17.587 7.65839 17.5706 8.07124 17.5378 8.89694C17.4253 11.7316 16.8136 15.2722 13.4885 15.5856V17.8898H14.421C14.7317 17.8898 14.9993 18.1092 15.0603 18.4139L15.1836 19.0307H16.9113C17.1814 19.0307 17.4003 19.2496 17.4003 19.5197C17.4003 19.7897 17.1814 20.0087 16.9113 20.0087H9.08779C8.81775 20.0087 8.59882 19.7897 8.59882 19.5197C8.59882 19.2496 8.81775 19.0307 9.08779 19.0307H10.8155L10.9388 18.4139C10.9998 18.1092 11.2674 17.8898 11.5782 17.8898H12.5106V15.5856C9.18539 15.2724 8.57366 11.7317 8.46113 8.89694C8.42834 8.07124 8.41191 7.65839 8.72211 7.2764C9.03225 6.89442 9.40341 6.83179 10.1459 6.70653Z" fill="white"/>
</g>
<defs>
<clipPath id="clip0_5177_254">
<rect width="14" height="14" fill="white" transform="matrix(-1 0 0 1 20 6)"/>
</clipPath>
</defs>
</svg>
