<svg width="26" height="26" viewBox="0 0 26 26" fill="none" xmlns="http://www.w3.org/2000/svg">
<circle cx="13" cy="13" r="13" fill="#007AFF"/>
<g clip-path="url(#clip0_5178_261)">
<path fill-rule="evenodd" clip-rule="evenodd" d="M14.4133 12.9703L18.6853 8.69598C18.8742 8.50714 18.9805 8.25097 18.9806 7.98381C18.9807 7.71665 18.8747 7.46039 18.6858 7.2714C18.5923 7.17782 18.4813 7.10358 18.3591 7.05291C18.2369 7.00223 18.106 6.97613 17.9737 6.97607C17.7065 6.97596 17.4503 7.08199 17.2613 7.27082L12.9893 11.5451L8.71734 7.27082C8.52835 7.08214 8.27216 6.97627 8.00512 6.97648C7.73807 6.9767 7.48203 7.083 7.29335 7.27199C7.10468 7.46098 6.9988 7.71717 6.99902 7.98422C6.99924 8.25127 7.10554 8.5073 7.29453 8.69598L11.5653 12.9703L7.29453 17.2434C7.11407 17.4338 7.01499 17.6871 7.0184 17.9494C7.02181 18.2117 7.12742 18.4623 7.31277 18.648C7.49811 18.8336 7.74858 18.9396 8.01089 18.9435C8.27319 18.9473 8.52664 18.8487 8.71734 18.6685L12.9893 14.3943L17.2613 18.6685C17.4503 18.8574 17.7065 18.9634 17.9737 18.9633C18.2408 18.9632 18.497 18.8569 18.6858 18.668C18.8747 18.479 18.9807 18.2227 18.9806 17.9556C18.9805 17.6884 18.8742 17.4322 18.6853 17.2434L14.4133 12.9703Z" fill="white"/>
</g>
<defs>
<clipPath id="clip0_5178_261">
<rect width="12" height="12" fill="white" transform="translate(7 7)"/>
</clipPath>
</defs>
</svg>
