<svg width="26" height="26" viewBox="0 0 26 26" fill="none" xmlns="http://www.w3.org/2000/svg">
<circle cx="13" cy="13" r="13" fill="#C4C4C4"/>
<g clip-path="url(#clip0_5177_245)">
<path d="M17.98 12.7641C17.9488 12.6419 17.8942 12.5283 17.8196 12.4305C17.745 12.3328 17.6522 12.2532 17.5473 12.197L14.7262 10.6847L15.4835 5.02258C15.5084 4.82635 15.4727 4.62671 15.3821 4.45461C15.2915 4.2825 15.1509 4.14754 14.9821 4.07063C14.8134 3.99372 14.6259 3.97916 14.4488 4.02921C14.2716 4.07925 14.1146 4.19111 14.0022 4.34745L8.17697 12.449C8.0979 12.5582 8.04324 12.6858 8.01726 12.8216C7.99128 12.9575 7.99467 13.098 8.02718 13.2322C8.06391 13.3664 8.12776 13.4902 8.21411 13.5945C8.30046 13.6988 8.40716 13.781 8.52648 13.8353L12.0799 15.3746L11.3226 20.9737C11.2968 21.1746 11.3346 21.3791 11.4298 21.5539C11.5249 21.7288 11.6719 21.8637 11.8469 21.9368C11.9444 21.9806 12.0492 22.002 12.1548 21.9998C12.2918 21.9991 12.4266 21.9617 12.5471 21.891C12.6676 21.8204 12.7701 21.7186 12.8455 21.5948L17.8385 13.4932C17.9088 13.3896 17.9579 13.271 17.9823 13.1452C18.0067 13.0194 18.0059 12.8895 17.98 12.7641Z" fill="white"/>
</g>
<defs>
<clipPath id="clip0_5177_245">
<rect width="10" height="18" fill="white" transform="translate(8 4)"/>
</clipPath>
</defs>
</svg>
