<svg width="26" height="26" viewBox="0 0 26 26" fill="none" xmlns="http://www.w3.org/2000/svg">
<circle cx="13" cy="13" r="13" fill="#B3B3B3"/>
<path d="M14.8474 11.1526C14.5828 10.8881 14.1539 10.8881 13.8893 11.1526C13.6249 11.4172 13.6249 11.8462 13.8894 12.1106L14.8474 11.1526ZM9.37479 13.479C9.63934 13.2144 9.63934 12.7856 9.37479 12.521C9.11025 12.2565 8.68134 12.2565 8.41679 12.521L9.37479 13.479ZM11.1527 14.8474C11.4172 15.1119 11.8462 15.1119 12.1106 14.8474C12.3752 14.5828 12.3752 14.1539 12.1106 13.8893L11.1527 14.8474ZM16.6252 12.521C16.3607 12.7856 16.3607 13.2144 16.6252 13.479C16.8898 13.7435 17.3186 13.7435 17.5832 13.479L16.6252 12.521ZM13.8894 12.1106C14.3066 12.5278 14.541 13.0937 14.541 13.6837H15.8958C15.8958 12.7344 15.5187 11.8239 14.8474 11.1526L13.8894 12.1106ZM14.541 13.6837C14.541 14.2737 14.3066 14.8396 13.8894 15.2568L14.8474 16.2148C15.5187 15.5436 15.8958 14.6331 15.8958 13.6837H14.541ZM13.8894 15.2568L11.1527 17.9936L12.1106 18.9516L14.8474 16.2148L13.8894 15.2568ZM11.1527 17.9936C10.2838 18.8624 8.87522 18.8624 8.00642 17.9936L7.04842 18.9516C8.44631 20.3495 10.7127 20.3495 12.1106 18.9516L11.1527 17.9936ZM8.00642 17.9936C7.13763 17.1248 7.13763 15.7162 8.00642 14.8474L7.04842 13.8894C5.65053 15.2872 5.65053 17.5537 7.04842 18.9516L8.00642 17.9936ZM8.00642 14.8474L9.37479 13.479L8.41679 12.521L7.04842 13.8894L8.00642 14.8474ZM12.1106 13.8893C11.6934 13.4721 11.459 12.9063 11.459 12.3163H10.1042C10.1042 13.2656 10.4813 14.1761 11.1527 14.8474L12.1106 13.8893ZM11.459 12.3163C11.459 11.7262 11.6934 11.1604 12.1106 10.7432L11.1527 9.78515C10.4813 10.4564 10.1042 11.3669 10.1042 12.3163H11.459ZM12.1106 10.7432L14.8474 8.00642L13.8894 7.04842L11.1527 9.78515L12.1106 10.7432ZM14.8474 8.00642C15.7162 7.13763 17.1248 7.13763 17.9936 8.00642L18.9516 7.04842C17.5537 5.65053 15.2872 5.65053 13.8894 7.04842L14.8474 8.00642ZM17.9936 8.00642C18.8624 8.87522 18.8624 10.2838 17.9936 11.1526L18.9516 12.1106C20.3495 10.7127 20.3495 8.44631 18.9516 7.04842L17.9936 8.00642ZM17.9936 11.1526L16.6252 12.521L17.5832 13.479L18.9516 12.1106L17.9936 11.1526Z" fill="white"/>
</svg>
