<svg width="13" height="13" viewBox="0 0 13 13" fill="none" xmlns="http://www.w3.org/2000/svg">
<g clip-path="url(#clip0_5259_957)">
<path d="M6.6398 5.90002C9.45093 5.90002 11.7298 4.58374 11.7298 2.96002C11.7298 1.3363 9.45093 0.0200195 6.6398 0.0200195C3.82868 0.0200195 1.5498 1.3363 1.5498 2.96002C1.5498 4.58374 3.82868 5.90002 6.6398 5.90002Z" fill="#959695"/>
<path fill-rule="evenodd" clip-rule="evenodd" d="M0.29 9.06006C0.1 9.36006 0 9.69006 0 10.0401C0 11.6601 2.28 12.9701 5.09 12.9701C7.9 12.9701 10.17 11.6601 10.17 10.0401C10.17 9.69006 10.07 9.36006 9.89 9.06006C9.19 10.2001 7.3 11.0201 5.09 11.0201C2.87 11.0201 0.98 10.2001 0.29 9.06006Z" fill="#959695"/>
<path fill-rule="evenodd" clip-rule="evenodd" d="M3.11008 5.22998C2.93008 5.53998 2.83008 5.85998 2.83008 6.20998C2.83008 7.82998 5.10008 9.14998 7.91008 9.14998C10.7201 9.14998 13.0001 7.82998 13.0001 6.20998C13.0001 5.85998 12.9001 5.53998 12.7101 5.22998C12.0201 6.36998 10.1301 7.18998 7.91008 7.18998C5.70008 7.18998 3.81008 6.36998 3.11008 5.22998Z" fill="#959695"/>
</g>
<defs>
<clipPath id="clip0_5259_957">
<rect width="13" height="13" fill="white"/>
</clipPath>
</defs>
</svg>
