<svg width="16" height="16" viewBox="0 0 16 16" fill="none" xmlns="http://www.w3.org/2000/svg">
<g clip-path="url(#clip0_5259_951)">
<path fill-rule="evenodd" clip-rule="evenodd" d="M15.4913 0.175957C15.3089 0.056868 15.0946 -0.00445706 14.8766 -1.92253e-05C14.6911 -0.000416418 14.5083 0.044553 14.3443 0.131035C14.1803 0.217518 14.0401 0.342962 13.9361 0.496075L5.21625 13.056L1.8458 9.216C1.62658 9.01443 1.33603 8.9079 1.03805 8.9199C0.740068 8.93191 0.459071 9.06152 0.25688 9.28006C0.0546885 9.4986 -0.0521376 9.78827 -0.040098 10.0853C-0.0280583 10.3824 0.101862 10.6625 0.32108 10.864L4.37525 15.4881L4.47315 15.6L4.57587 15.7119L4.61759 15.7439L4.70266 15.824L4.92254 15.9199L4.97229 15.9519L5.31737 16H5.3318C5.48727 16.0019 5.64144 15.9715 5.78455 15.9109C5.92766 15.8503 6.05659 15.7609 6.16319 15.648L6.25467 15.5039L15.8155 1.72791C15.8966 1.60482 15.9525 1.4671 15.9801 1.32244C16.0077 1.17779 16.0063 1.02909 15.9762 0.884942C15.9461 0.74079 15.8878 0.604058 15.8046 0.482403C15.7214 0.360748 15.6149 0.256554 15.4913 0.175957Z" fill="#35C759"/>
</g>
<defs>
<clipPath id="clip0_5259_951">
<rect width="16" height="16" fill="white"/>
</clipPath>
</defs>
</svg>
