<svg width="8" height="14" viewBox="0 0 8 14" fill="none" xmlns="http://www.w3.org/2000/svg">
<path fill-rule="evenodd" clip-rule="evenodd" d="M0.295205 7.70573L6.35218 13.7444C6.54363 13.9301 6.79473 14.0332 7.05557 14.0332C7.31641 14.0332 7.56784 13.9301 7.75928 13.7444C7.85116 13.656 7.92438 13.5486 7.97455 13.429C8.02473 13.3093 8.05078 13.18 8.05078 13.0493C8.05078 12.9186 8.02473 12.7893 7.97455 12.6696C7.92438 12.55 7.85116 12.4425 7.75928 12.3541L2.38574 7.01761L7.75929 1.68104C7.85116 1.59264 7.92438 1.48518 7.97455 1.36552C8.02473 1.24586 8.05078 1.1166 8.05078 0.985888C8.05078 0.855182 8.02473 0.725879 7.97455 0.606215C7.92438 0.48655 7.85116 0.379141 7.75929 0.290741C7.56784 0.105085 7.31641 0.0019674 7.05557 0.00196739C6.79474 0.00196738 6.54363 0.105085 6.35218 0.290741L0.295205 6.32944C0.204585 6.41715 0.13234 6.52357 0.0828808 6.642C0.0334209 6.76043 0.00796159 6.88833 0.00796158 7.01761C0.00796157 7.14688 0.0334209 7.27474 0.0828808 7.39317C0.13234 7.51159 0.204585 7.61802 0.295205 7.70573Z" fill="white"/>
</svg>
