<svg width="21" height="19" viewBox="0 0 21 19" fill="none" xmlns="http://www.w3.org/2000/svg">
<g clip-path="url(#clip0_2972_1375)">
<path d="M13.6957 12.9154V17.1672C13.6957 17.6783 13.3304 18.0965 12.8283 18.0965H0.913043C0.41087 18.0965 0 17.6783 0 17.1672V1.83291C0 1.32177 0.41087 0.903564 0.913043 0.903564H12.8283C13.3304 0.903564 13.6957 1.32177 13.6957 1.83291V6.08468C13.6957 6.59582 13.2848 7.01403 12.7826 7.01403C12.2804 7.01403 11.8696 6.59582 11.8696 6.08468V2.76226H1.82609V16.2378H11.8696V12.9154C11.8696 12.4042 12.2804 11.986 12.7826 11.986C13.2848 11.986 13.6957 12.4042 13.6957 12.9154ZM20.7261 8.80302L17.1652 5.1321C16.8 4.76036 16.2293 4.76036 15.8641 5.1321C15.4989 5.50384 15.4989 6.08468 15.8641 6.45642L17.8957 8.54745L6.825 8.57068C6.32283 8.57068 5.91196 8.98889 5.91196 9.50003C5.91196 10.0112 6.32283 10.4294 6.825 10.4294L17.8957 10.4061L15.8641 12.4972C15.4989 12.8689 15.5217 13.4498 15.8641 13.8215C16.0467 14.0074 16.275 14.1003 16.5033 14.1003C16.7315 14.1003 16.9826 14.0074 17.1424 13.8215L20.7261 10.1506C21.0913 9.7556 21.0913 9.17476 20.7261 8.80302Z" fill="#FF3B30"/>
</g>
<defs>
<clipPath id="clip0_2972_1375">
<rect width="21" height="19" fill="white"/>
</clipPath>
</defs>
</svg>
