<svg width="19" height="19" viewBox="0 0 19 19" fill="none" xmlns="http://www.w3.org/2000/svg">
<path d="M11.9614 7.03891C11.609 6.68647 11.0375 6.68649 10.6851 7.03895C10.3327 7.39143 10.3327 7.96289 10.6852 8.31523L11.9614 7.03891ZM4.67048 10.1383C5.02293 9.78582 5.02293 9.21448 4.67048 8.86202C4.31803 8.50956 3.7466 8.50956 3.39415 8.86202L4.67048 10.1383ZM7.03909 11.9613C7.39155 12.3138 7.96301 12.3138 8.31535 11.9613C8.6678 11.6089 8.6678 11.0374 8.31535 10.685L7.03909 11.9613ZM14.3301 8.86202C13.9776 9.21448 13.9776 9.78582 14.3301 10.1383C14.6825 10.4907 15.2539 10.4907 15.6063 10.1383L14.3301 8.86202ZM10.6852 8.31523C11.241 8.87105 11.5533 9.62493 11.5533 10.4111H13.3583C13.3583 9.14625 12.8559 7.93329 11.9614 7.03891L10.6852 8.31523ZM11.5533 10.4111C11.5533 11.1971 11.241 11.951 10.6852 12.5068L11.9614 13.7832C12.8559 12.8889 13.3583 11.6759 13.3583 10.4111H11.5533ZM10.6852 12.5068L7.03909 16.153L8.31535 17.4293L11.9614 13.7832L10.6852 12.5068ZM7.03909 16.153C5.88157 17.3105 4.00491 17.3105 2.84742 16.153L1.5711 17.4293C3.43348 19.2917 6.453 19.2917 8.31535 17.4293L7.03909 16.153ZM2.84742 16.153C1.68995 14.9955 1.68995 13.1188 2.84742 11.9613L1.5711 10.6851C-0.291277 12.5473 -0.291277 15.5669 1.5711 17.4293L2.84742 16.153ZM2.84742 11.9613L4.67048 10.1383L3.39415 8.86202L1.5711 10.6851L2.84742 11.9613ZM8.31535 10.685C7.75953 10.1291 7.44726 9.37524 7.44726 8.58922H5.64221C5.64221 9.85405 6.14468 11.067 7.03909 11.9613L8.31535 10.685ZM7.44726 8.58922C7.44726 7.80309 7.75953 7.04926 8.31535 6.49343L7.03909 5.21706C6.14468 6.11139 5.64221 7.3244 5.64221 8.58922H7.44726ZM8.31535 6.49343L11.9614 2.8473L10.6852 1.57098L7.03909 5.21706L8.31535 6.49343ZM11.9614 2.8473C13.1189 1.68983 14.9957 1.68983 16.1531 2.8473L17.4294 1.57098C15.567 -0.291399 12.5475 -0.291399 10.6852 1.57098L11.9614 2.8473ZM16.1531 2.8473C17.3106 4.00479 17.3106 5.88145 16.1531 7.03892L17.4294 8.31523C19.2918 6.45288 19.2918 3.43336 17.4294 1.57098L16.1531 2.8473ZM16.1531 7.03892L14.3301 8.86202L15.6063 10.1383L17.4294 8.31523L16.1531 7.03892Z" fill="black"/>
</svg>
