<svg width="5" height="9" viewBox="0 0 5 9" fill="none" xmlns="http://www.w3.org/2000/svg">
<g clip-path="url(#clip0_5259_829)">
<path fill-rule="evenodd" clip-rule="evenodd" d="M4.8155 4.0463L1.02989 0.164278C0.91023 0.0449281 0.753291 -0.0213623 0.590268 -0.0213623C0.427246 -0.0213623 0.270102 0.044928 0.150447 0.164278C0.0930281 0.221107 0.0472629 0.290156 0.0159039 0.367083C-0.0154551 0.444009 -0.0317383 0.527133 -0.0317383 0.611159C-0.0317383 0.695185 -0.0154551 0.778281 0.0159039 0.855208C0.0472629 0.932135 0.093028 1.00121 0.150447 1.05804L3.50891 4.48866L0.150447 7.91932C0.0930277 7.97614 0.0472626 8.04522 0.0159036 8.12215C-0.0154554 8.19907 -0.0317386 8.28217 -0.0317386 8.3662C-0.0317387 8.45022 -0.0154555 8.53335 0.0159035 8.61027C0.0472625 8.6872 0.0930277 8.75625 0.150447 8.81308C0.270102 8.93243 0.427246 8.99872 0.590268 8.99872C0.75329 8.99872 0.91023 8.93243 1.02988 8.81308L4.8155 4.93105C4.87213 4.87467 4.91729 4.80626 4.9482 4.73012C4.97911 4.65399 4.99502 4.57177 4.99502 4.48866C4.99502 4.40556 4.97911 4.32337 4.9482 4.24723C4.91729 4.1711 4.87213 4.10269 4.8155 4.0463Z" fill="#8A8A8E"/>
</g>
<defs>
<clipPath id="clip0_5259_829">
<rect width="9" height="5" fill="white" transform="matrix(-4.37114e-08 1 1 4.37114e-08 0 0)"/>
</clipPath>
</defs>
</svg>
