
<svg width="34" height="34" viewBox="0 0 34 34" fill="none" xmlns="http://www.w3.org/2000/svg">
<rect width="34" height="34" rx="17" fill="#2A76E3"/>
<g clip-path="url(#clip0_7103_3727)">
<path d="M23.9318 15.3492C23.9251 15.2092 23.8909 15.0719 23.8312 14.9452C23.7714 14.8184 23.6873 14.7047 23.5837 14.6105L17.717 9.27715C17.7166 9.27685 17.7162 9.27656 17.7157 9.27626C17.5222 9.09246 17.2667 8.98797 16.9999 8.9834C16.7332 8.98798 16.4778 9.09246 16.2843 9.27621C16.2838 9.27652 16.2833 9.27684 16.2829 9.27715L10.4162 14.6105C10.3125 14.7047 10.2285 14.8184 10.1687 14.9452C10.109 15.0719 10.0748 15.2092 10.0681 15.3491C10.0614 15.4891 10.0823 15.629 10.1297 15.7609C10.177 15.8928 10.2498 16.014 10.344 16.1177C10.5342 16.3272 10.7997 16.4524 11.0822 16.466C11.3647 16.4795 11.641 16.3802 11.8503 16.19L15.9336 12.4779V23.9494C15.9336 24.0895 15.9612 24.2283 16.0148 24.3577C16.0683 24.4872 16.1469 24.6048 16.2459 24.7039C16.3449 24.8029 16.4625 24.8815 16.5919 24.9352C16.7212 24.9888 16.8599 25.0164 16.9999 25.0164C17.14 25.0164 17.2786 24.9888 17.408 24.9352C17.5374 24.8815 17.6549 24.8029 17.754 24.7039C17.853 24.6048 17.9315 24.4872 17.9851 24.3577C18.0387 24.2283 18.0663 24.0895 18.0663 23.9494V12.4779L22.1495 16.19C22.2532 16.2842 22.3743 16.3571 22.5061 16.4044C22.6379 16.4518 22.7778 16.4727 22.9177 16.466C23.0575 16.4593 23.1947 16.4251 23.3214 16.3653C23.448 16.3056 23.5617 16.2214 23.6559 16.1177C23.846 15.9083 23.9453 15.6318 23.9318 15.3492Z" fill="white"/>
</g>
<defs>
<clipPath id="clip0_7103_3727">
<rect width="16" height="16" fill="white" transform="translate(9 9)"/>
</clipPath>
</defs>
</svg>
