<svg width="12" height="12" viewBox="0 0 12 12" fill="none" xmlns="http://www.w3.org/2000/svg">
<g clip-path="url(#clip0_5537_4099)">
<path fill-rule="evenodd" clip-rule="evenodd" d="M7.4128 5.97026L11.6848 1.69598C11.8738 1.50714 11.98 1.25097 11.9801 0.983813C11.9802 0.716655 11.8742 0.460388 11.6853 0.271401C11.5918 0.177824 11.4808 0.10358 11.3586 0.052907C11.2364 0.00223423 11.1055 -0.0238715 10.9732 -0.0239257C10.706 -0.0240351 10.4498 0.08199 10.2608 0.270822L5.98882 4.54511L1.71685 0.270822C1.52787 0.0821448 1.27168 -0.023735 1.00463 -0.0235161C0.737578 -0.0232972 0.481542 0.0830018 0.292865 0.271989C0.104187 0.460976 -0.0016834 0.717174 -0.0014645 0.984223C-0.00124561 1.25127 0.105053 1.5073 0.29404 1.69598L4.56483 5.97026L0.29404 10.2434C0.113583 10.4338 0.0145036 10.6871 0.0179129 10.9494C0.0213221 11.2117 0.126933 11.4623 0.312278 11.648C0.497623 11.8336 0.748094 11.9396 1.0104 11.9435C1.2727 11.9473 1.52615 11.8487 1.71685 11.6685L5.98882 7.39425L10.2608 11.6685C10.4498 11.8574 10.706 11.9634 10.9732 11.9633C11.2403 11.9632 11.4965 11.8569 11.6853 11.668C11.8742 11.479 11.9802 11.2227 11.9801 10.9556C11.98 10.6884 11.8738 10.4322 11.6848 10.2434L7.4128 5.97026Z" fill="white"/>
</g>
<defs>
<clipPath id="clip0_5537_4099">
<rect width="12" height="12" fill="white"/>
</clipPath>
</defs>
</svg>
