<svg width="14" height="14" viewBox="0 0 14 14" fill="none" xmlns="http://www.w3.org/2000/svg">
<g clip-path="url(#clip0_5537_4128)">
<path fill-rule="evenodd" clip-rule="evenodd" d="M5.73039 0.138545C6.00358 0.0324707 6.34995 0.0324707 7.04269 0.0324707C7.73544 0.0324707 8.08181 0.0324707 8.35499 0.138545C8.71929 0.279981 9.00872 0.551264 9.15961 0.892711C9.22849 1.04858 9.25545 1.22985 9.266 1.49426C9.2815 1.88284 9.4941 2.24251 9.85338 2.43694C10.2127 2.63136 10.6513 2.62409 11.018 2.44239C11.2676 2.31875 11.4486 2.24999 11.627 2.22797C12.018 2.17973 12.4133 2.27903 12.7262 2.50402C12.9608 2.67276 13.134 2.95391 13.4803 3.51622C13.8267 4.07853 13.9999 4.35968 14.0385 4.6345C14.0899 5.00092 13.984 5.3715 13.744 5.66472C13.6344 5.79857 13.4804 5.91103 13.2414 6.05177C12.8901 6.25871 12.6641 6.6112 12.6641 7.00006C12.6641 7.38893 12.8902 7.74135 13.2414 7.94821C13.4805 8.08903 13.6345 8.20156 13.744 8.3354C13.9841 8.6286 14.09 8.99914 14.0385 9.36556C13.9999 9.64036 13.8268 9.92158 13.4804 10.4839C13.134 11.0461 12.9609 11.3274 12.7262 11.496C12.4134 11.721 12.0181 11.8203 11.6271 11.7721C11.4487 11.7501 11.2677 11.6813 11.0182 11.5577C10.6514 11.376 10.2127 11.3687 9.85341 11.5631C9.49412 11.7576 9.28151 12.1173 9.266 12.5059C9.25545 12.7703 9.22849 12.9516 9.15961 13.1074C9.00872 13.4489 8.71929 13.7202 8.35499 13.8616C8.08181 13.9677 7.73544 13.9677 7.04269 13.9677C6.34995 13.9677 6.00358 13.9677 5.73039 13.8616C5.36609 13.7202 5.07668 13.4489 4.92581 13.1074C4.8569 12.9516 4.8299 12.7703 4.81935 12.5059C4.80386 12.1173 4.59131 11.7576 4.23203 11.5631C3.87275 11.3687 3.43409 11.376 3.06728 11.5577C2.8177 11.6813 2.63681 11.75 2.45834 11.772C2.06741 11.8203 1.67206 11.721 1.35925 11.496C1.12458 11.3273 0.951427 11.0461 0.605055 10.4838C0.258684 9.92151 0.085536 9.64036 0.0468779 9.36556C-0.0045433 8.99914 0.101398 8.62853 0.341386 8.33533C0.451015 8.20149 0.604981 8.08896 0.844011 7.94821C1.19525 7.74135 1.4213 7.38886 1.4213 6.99999C1.4213 6.61113 1.19525 6.25878 0.844011 6.05191C0.604908 5.9111 0.450942 5.79864 0.341312 5.66472C0.101324 5.37155 -0.00461578 5.00097 0.0468044 4.63455C0.0854626 4.35973 0.258611 4.07857 0.604982 3.51627C0.951353 2.95396 1.1245 2.67281 1.35918 2.50406C1.67198 2.27907 2.06734 2.17978 2.45827 2.22802C2.63673 2.25004 2.8177 2.31879 3.06721 2.44242C3.43401 2.62413 3.87268 2.6314 4.23196 2.43696C4.59124 2.24253 4.80386 1.88283 4.81942 1.49423C4.82997 1.22984 4.8569 1.04858 4.92581 0.892711C5.07668 0.551264 5.36609 0.279981 5.73039 0.138545ZM7.04269 9.09034C5.81103 9.09034 4.81264 8.15452 4.81264 7.00006C4.81264 5.8456 5.81103 4.90979 7.04269 4.90979C8.27436 4.90979 9.27278 5.8456 9.27278 7.00006C9.27278 8.15452 8.27436 9.09034 7.04269 9.09034Z" fill="white"/>
</g>
<defs>
<clipPath id="clip0_5537_4128">
<rect width="14" height="14" fill="white" transform="matrix(-1 0 0 1 14 0)"/>
</clipPath>
</defs>
</svg>
