<svg width="7" height="8" viewBox="0 0 7 8" fill="none" xmlns="http://www.w3.org/2000/svg">
<path d="M3.50004 4.40016C4.74803 4.40016 5.75973 3.41515 5.75973 2.20008C5.75973 0.985008 4.74803 0 3.50004 0C2.25204 0 1.24034 0.985008 1.24034 2.20008C1.24034 3.41515 2.25204 4.40016 3.50004 4.40016Z" fill="white"/>
<path d="M6.7278 7.64857C6.93646 7.60259 7.06156 7.39143 6.96909 7.20363C6.71971 6.69717 6.30985 6.25209 5.77864 5.91667C5.12495 5.50394 4.32398 5.28019 3.50001 5.28019C2.67604 5.28019 1.87508 5.50394 1.22138 5.91667C0.690148 6.25209 0.280289 6.69712 0.0309042 7.20363C-0.0615671 7.39143 0.0635659 7.60259 0.272195 7.64857C2.39717 8.11714 4.60283 8.11714 6.7278 7.64857Z" fill="white"/>
</svg>
