<svg width="18" height="18" viewBox="0 0 18 18" fill="none" xmlns="http://www.w3.org/2000/svg">
<circle cx="9" cy="9" r="9" fill="#FF0000"/>
<g clip-path="url(#clip0_7103_3728)">
<path fill-rule="evenodd" clip-rule="evenodd" d="M6 5.29336V12.6734C6 13.0001 6.34511 13.1001 6.72941 12.9067C7.03741 12.7534 12.2055 9.65338 12.7312 9.39338C12.8077 9.35924 12.8724 9.3051 12.9177 9.23721C12.963 9.16932 12.9871 9.09053 12.9871 9.01008C12.9871 8.92963 12.963 8.85084 12.9177 8.78295C12.8724 8.71505 12.8077 8.66083 12.7312 8.6267C12.3532 8.43336 7.1613 5.32009 6.7112 5.10676C6.3864 4.94676 6 4.93336 6 5.29336Z" fill="white"/>
</g>
<defs>
<clipPath id="clip0_7103_3728">
<rect width="7" height="8" fill="white" transform="translate(6 5)"/>
</clipPath>
</defs>
</svg>
