<svg width="16" height="16" viewBox="0 0 16 16" fill="none" xmlns="http://www.w3.org/2000/svg">
<path fill-rule="evenodd" clip-rule="evenodd" d="M8 16C12.42 16 16 12.42 16 8C16 3.58 12.42 0 8 0C3.58 0 0 3.58 0 8C0 12.42 3.58 16 8 16ZM5.28 6.15C5.28 5.81 5.39 5.46 5.61 5.1C5.83 4.75 6.15 4.45 6.58 4.22C7 3.99 7.5 3.87 8.07 3.87C8.6 3.87 9.06 3.97 9.46 4.16C9.87 4.36 10.18 4.62 10.4 4.96C10.62 5.29 10.73 5.66 10.73 6.05C10.73 6.36 10.66 6.63 10.54 6.86C10.41 7.09 10.26 7.29 10.09 7.46C9.92 7.63 9.61 7.92 9.16 8.32C9.04 8.43 8.94 8.53 8.87 8.61C8.79 8.7 8.74 8.78 8.7 8.85C8.66 8.92 8.64 8.99 8.61 9.06C8.6 9.13 8.56 9.26 8.53 9.43C8.46 9.81 8.24 10 7.88 10C7.69 10 7.53 9.94 7.4 9.82C7.27 9.69 7.21 9.51 7.21 9.27C7.21 8.96 7.25 8.7 7.35 8.47C7.44 8.25 7.57 8.05 7.72 7.88C7.88 7.71 8.09 7.51 8.36 7.28C8.59 7.08 8.76 6.92 8.86 6.82C8.97 6.72 9.05 6.6 9.12 6.47C9.19 6.35 9.23 6.21 9.23 6.06C9.23 5.77 9.12 5.52 8.9 5.32C8.69 5.12 8.41 5.02 8.07 5.02C7.67 5.02 7.37 5.12 7.18 5.33C6.99 5.53 6.84 5.83 6.7 6.22C6.58 6.63 6.35 6.83 6 6.83C5.8 6.83 5.62 6.76 5.49 6.62C5.34 6.47 5.28 6.32 5.28 6.15ZM7.94 12.13C7.71 12.13 7.52 12.06 7.36 11.91C7.19 11.77 7.11 11.57 7.11 11.31C7.11 11.08 7.19 10.89 7.35 10.73C7.51 10.57 7.7 10.5 7.94 10.5C8.16 10.5 8.36 10.57 8.51 10.73C8.67 10.89 8.75 11.08 8.75 11.31C8.75 11.56 8.67 11.77 8.5 11.91C8.34 12.06 8.15 12.13 7.94 12.13Z" fill="#C8C8CD"/>
</svg>
