
<svg width="20" height="18" viewBox="0 0 20 18" fill="none" xmlns="http://www.w3.org/2000/svg">
<g clip-path="url(#clip0_3186_3100)">
<path fill-rule="evenodd" clip-rule="evenodd" d="M10.9058 0.773974C10.6189 0.721653 10.3233 0.75547 10.0562 0.870541C9.78917 0.985537 9.56392 1.17594 9.40659 1.416C9.24942 1.65592 9.16642 1.93562 9.16634 2.22049V4.90053C6.04852 5.09606 3.93782 6.40387 2.62843 8.45632C1.25076 10.6158 0.833008 13.4892 0.833008 16.425C0.833008 16.7748 1.05578 17.0865 1.38893 17.203C1.72207 17.3194 2.09317 17.2152 2.31498 16.9429C3.3437 15.6803 4.08777 14.7726 5.14597 14.1395C6.05331 13.5967 7.25422 13.2245 9.16634 13.1422V15.7785C9.16642 16.0634 9.24942 16.3432 9.40659 16.5831C9.56392 16.8231 9.78917 17.0136 10.0562 17.1286C10.3233 17.2436 10.6189 17.2774 10.9058 17.2251C11.1927 17.1728 11.456 17.0371 11.664 16.8373L18.7153 10.0582C18.8588 9.9202 18.9723 9.75496 19.0496 9.57313C19.1268 9.39138 19.1663 9.19635 19.1663 8.9995C19.1663 8.80274 19.1268 8.60763 19.0496 8.42588C18.9723 8.24413 18.859 8.07905 18.7155 7.94103L11.6641 1.16196C11.4562 0.962008 11.1927 0.826263 10.9058 0.773974ZM10.833 2.66294V6.525H9.99967C6.91236 6.525 5.11474 7.64898 4.03758 9.33742C3.23861 10.5898 2.7978 12.2121 2.61012 14.0673C3.10736 13.5642 3.64808 13.1078 4.28393 12.7273C5.66342 11.902 7.4081 11.475 9.99967 11.475H10.833V15.3361L17.4242 8.9995L10.833 2.66294Z" fill="#007AFF"/>
</g>
<defs>
<clipPath id="clip0_3186_3100">
<rect width="20" height="18" fill="white"/>
</clipPath>
</defs>
</svg>
