<svg width="16" height="16" viewBox="0 0 16 16" fill="none" xmlns="http://www.w3.org/2000/svg">
<path fill-rule="evenodd" clip-rule="evenodd" d="M15.7 13.3L11.89 9.47C12.6149 8.45846 13.0033 7.24449 13 6C13 2.69 10.31 0 7 0C3.69 0 1 2.69 1 6C1 9.31 3.69 12 7 12C8.3 12 9.48 11.59 10.47 10.89L14.3 14.7C14.49 14.9 14.75 15 15 15C15.25 15 15.52 14.91 15.7 14.7C15.7927 14.6075 15.8663 14.4976 15.9164 14.3766C15.9666 14.2557 15.9924 14.126 15.9924 13.995C15.9924 13.864 15.9666 13.7343 15.9164 13.6134C15.8663 13.4924 15.7927 13.3825 15.7 13.29V13.3ZM7 10.7C4.41 10.7 2.3 8.59 2.3 6C2.3 3.41 4.41 1.3 7 1.3C9.59 1.3 11.7 3.41 11.7 6C11.7 8.59 9.59 10.7 7 10.7Z" fill="#8E8E92"/>
</svg>
