<svg width="14" height="14" viewBox="0 0 14 14" fill="none" xmlns="http://www.w3.org/2000/svg">
<path fill-rule="evenodd" clip-rule="evenodd" d="M13.5546 0.154054C13.395 0.049851 13.2075 -0.00380838 13.0168 7.47306e-05C12.8545 -0.000272813 12.6945 0.0390754 12.551 0.114748C12.4075 0.19042 12.2849 0.300183 12.1938 0.434157L4.56397 11.4241L1.61483 8.06409C1.42302 7.88772 1.16878 7.7945 0.908049 7.80501C0.647315 7.81551 0.401443 7.92892 0.224526 8.12014C0.0476083 8.31136 -0.0458645 8.56483 -0.0353298 8.82476C-0.0247952 9.08468 0.0888855 9.32976 0.280701 9.50613L3.8281 13.5521L3.91376 13.6501L4.00364 13.748L4.04015 13.776L4.11458 13.8461L4.30698 13.93L4.35051 13.958L4.65245 14.0001H4.66508C4.80112 14.0017 4.93602 13.9752 5.06124 13.9221C5.18646 13.8691 5.29927 13.7908 5.39255 13.6921L5.47259 13.566L13.8383 1.51201C13.9093 1.40431 13.9582 1.2838 13.9823 1.15723C14.0065 1.03066 14.0053 0.900548 13.979 0.774415C13.9526 0.648283 13.9016 0.528642 13.8288 0.422194C13.756 0.315746 13.6628 0.224576 13.5546 0.154054Z" fill="white"/>
</svg>
