<svg width="14" height="14" viewBox="0 0 14 14" fill="none" xmlns="http://www.w3.org/2000/svg">
<g clip-path="url(#clip0_5212_3989)">
<path d="M0.48073 4.49798V4.54527C0.48073 5.10644 0.480731 5.38702 0.615817 5.61659C0.750903 5.84614 0.996171 5.9824 1.48671 6.25492L2.00391 6.54231C1.64754 5.33738 1.52863 4.04278 1.48462 2.93564C1.48279 2.88817 1.48064 2.84012 1.47849 2.79156L1.47699 2.75754C1.05237 2.90499 0.814013 3.01493 0.6653 3.22127C0.480665 3.47739 0.480665 3.81759 0.48073 4.49798Z" fill="white"/>
<path d="M13.5195 4.49797V4.54526C13.5195 5.10643 13.5195 5.38701 13.3844 5.61658C13.2493 5.84614 13.0041 5.9824 12.5135 6.25492L11.996 6.54243C12.3525 5.33748 12.4714 4.04283 12.5153 2.93563C12.5172 2.88816 12.5194 2.84011 12.5215 2.79155L12.523 2.75745C12.9478 2.90495 13.1862 3.01488 13.335 3.22126C13.5196 3.47738 13.5196 3.81758 13.5195 4.49797Z" fill="white"/>
<path fill-rule="evenodd" clip-rule="evenodd" d="M4.14586 0.706438C4.87867 0.582794 5.83666 0.480377 6.99943 0.480377C8.16226 0.480377 9.12023 0.582794 9.85307 0.706438C10.5955 0.831699 10.9667 0.894333 11.2768 1.27631C11.587 1.65829 11.5706 2.07115 11.5378 2.89685C11.4253 5.73153 10.8136 9.27213 7.48853 9.58547V11.8897H8.42096C8.73174 11.8897 8.99931 12.1091 9.06026 12.4138L9.18363 13.0306H10.9113C11.1814 13.0306 11.4003 13.2495 11.4003 13.5196C11.4003 13.7896 11.1814 14.0086 10.9113 14.0086H3.08779C2.81775 14.0086 2.59882 13.7896 2.59882 13.5196C2.59882 13.2495 2.81775 13.0306 3.08779 13.0306H4.81549L4.93884 12.4138C4.9998 12.1091 5.26736 11.8897 5.57815 11.8897H6.51059V9.58547C3.18539 9.27226 2.57366 5.7316 2.46113 2.89685C2.42834 2.07115 2.41191 1.65829 2.72211 1.27631C3.03225 0.894333 3.40341 0.831699 4.14586 0.706438Z" fill="white"/>
</g>
<defs>
<clipPath id="clip0_5212_3989">
<rect width="14" height="14" fill="white" transform="matrix(-1 0 0 1 14 0)"/>
</clipPath>
</defs>
</svg>
