<svg width="17" height="17" viewBox="0 0 17 17" fill="none" xmlns="http://www.w3.org/2000/svg">
<g clip-path="url(#clip0_5141_804)">
<path d="M0.583535 5.46178V5.5192C0.583535 6.20062 0.583536 6.54133 0.747569 6.82009C0.911602 7.09884 1.20943 7.2643 1.80508 7.59521L2.43311 7.94418C2.00038 6.48105 1.85598 4.90904 1.80254 3.56466C1.80033 3.50701 1.79771 3.44866 1.7951 3.3897L1.79328 3.34839C1.27767 3.52744 0.988235 3.66093 0.807656 3.91149C0.583456 4.22249 0.583456 4.63559 0.583535 5.46178Z" fill="black"/>
<path d="M16.4165 5.46188V5.5193C16.4165 6.20072 16.4165 6.54143 16.2524 6.82019C16.0884 7.09894 15.7906 7.2644 15.1949 7.59531L14.5665 7.94444C14.9994 6.48129 15.1438 4.90921 15.1971 3.56476C15.1994 3.50712 15.202 3.44876 15.2046 3.3898L15.2064 3.34839C15.7222 3.5275 16.0118 3.66099 16.1924 3.9116C16.4165 4.22259 16.4165 4.63569 16.4165 5.46188Z" fill="black"/>
<path fill-rule="evenodd" clip-rule="evenodd" d="M5.03482 0.857754C5.92465 0.707615 7.08793 0.583252 8.49986 0.583252C9.91188 0.583252 11.0751 0.707615 11.965 0.857754C12.8665 1.00986 13.3172 1.08591 13.6939 1.54974C14.0705 2.01358 14.0506 2.5149 14.0108 3.51754C13.8741 6.95965 13.1313 11.259 9.09377 11.6394V14.4374H10.226C10.6034 14.4374 10.9283 14.7038 11.0023 15.0738L11.1521 15.8228H13.25C13.5779 15.8228 13.8438 16.0887 13.8438 16.4166C13.8438 16.7445 13.5779 17.0103 13.25 17.0103H3.75002C3.42211 17.0103 3.15627 16.7445 3.15627 16.4166C3.15627 16.0887 3.42211 15.8228 3.75002 15.8228H5.84794L5.99772 15.0738C6.07174 14.7038 6.39664 14.4374 6.77403 14.4374H7.90627V11.6394C3.86854 11.2591 3.12571 6.95973 2.98907 3.51754C2.94925 2.5149 2.9293 2.01358 3.30598 1.54974C3.68257 1.08591 4.13327 1.00986 5.03482 0.857754Z" fill="black"/>
</g>
<defs>
<clipPath id="clip0_5141_804">
<rect width="17" height="17" fill="white" transform="matrix(-1 0 0 1 17 0)"/>
</clipPath>
</defs>
</svg>
