<svg width="10" height="18" viewBox="0 0 10 18" fill="none" xmlns="http://www.w3.org/2000/svg">
<path d="M9.97998 8.76407C9.94882 8.64192 9.89416 8.52826 9.81959 8.43054C9.74502 8.33281 9.65222 8.25322 9.54725 8.19696L6.72618 6.68467L7.48346 1.02258C7.50836 0.826346 7.47273 0.62671 7.38209 0.454606C7.29146 0.282502 7.15088 0.147538 6.98214 0.0706298C6.8134 -0.00627866 6.62592 -0.0208377 6.44875 0.0292085C6.27158 0.0792547 6.11462 0.191112 6.00219 0.347447L0.17697 8.44901C0.0979021 8.55823 0.0432429 8.68575 0.017259 8.8216C-0.00872487 8.95745 -0.00533011 9.09796 0.0271785 9.23216C0.0639119 9.36642 0.127761 9.49017 0.214112 9.59447C0.300462 9.69878 0.407156 9.78103 0.526483 9.83528L4.07987 11.3746L3.32259 16.9737C3.29685 17.1746 3.33462 17.3791 3.42978 17.5539C3.52494 17.7288 3.67191 17.8637 3.84686 17.9368C3.94438 17.9806 4.04921 18.002 4.15476 17.9998C4.29183 17.9991 4.4266 17.9617 4.54709 17.891C4.66759 17.8204 4.77008 17.7186 4.84547 17.5948L9.83851 9.49321C9.90884 9.38964 9.95785 9.27098 9.98226 9.14521C10.0067 9.01945 10.0059 8.88948 9.97998 8.76407Z" fill="white"/>
</svg>
