<svg width="10" height="20" viewBox="0 0 10 20" fill="none" xmlns="http://www.w3.org/2000/svg">
<g clip-path="url(#clip0_5141_797)">
<path d="M9.97998 9.73785C9.94882 9.60213 9.89416 9.47585 9.81959 9.36726C9.74502 9.25868 9.65222 9.17024 9.54725 9.10773L6.72618 7.42741L7.48346 1.1362C7.50836 0.918162 7.47273 0.696345 7.38209 0.505118C7.29146 0.313891 7.15088 0.163931 6.98214 0.0784775C6.8134 -0.00697629 6.62592 -0.023153 6.44875 0.0324539C6.27158 0.0880608 6.11462 0.212347 6.00219 0.386052L0.17697 9.38779C0.0979021 9.50915 0.0432429 9.65083 0.017259 9.80178C-0.00872487 9.95273 -0.00533011 10.1088 0.0271785 10.258C0.0639119 10.4071 0.127761 10.5446 0.214112 10.6605C0.300462 10.7764 0.407156 10.8678 0.526483 10.9281L4.07987 12.6384L3.32259 18.8596C3.29685 19.0829 3.33462 19.3101 3.42978 19.5044C3.52494 19.6986 3.67191 19.8485 3.84686 19.9298C3.94438 19.9784 4.04921 20.0023 4.15476 19.9998C4.29183 19.999 4.4266 19.9574 4.54709 19.8789C4.66759 19.8004 4.77008 19.6873 4.84547 19.5497L9.83851 10.548C9.90884 10.4329 9.95785 10.3011 9.98226 10.1613C10.0067 10.0216 10.0059 9.87721 9.97998 9.73785Z" fill="black"/>
</g>
<defs>
<clipPath id="clip0_5141_797">
<rect width="10" height="20" fill="white"/>
</clipPath>
</defs>
</svg>
