<svg width="8" height="14" viewBox="0 0 8 14" fill="none" xmlns="http://www.w3.org/2000/svg">
<path fill-rule="evenodd" clip-rule="evenodd" d="M7.70528 7.70573L1.6483 13.7444C1.45686 13.9301 1.20575 14.0332 0.944918 14.0332C0.684082 14.0332 0.432652 13.9301 0.241204 13.7444C0.149333 13.656 0.0761089 13.5486 0.0259345 13.429C-0.0242399 13.3093 -0.050293 13.18 -0.050293 13.0493C-0.050293 12.9186 -0.0242399 12.7893 0.0259345 12.6696C0.0761089 12.55 0.149333 12.4425 0.241204 12.3541L5.61475 7.01761L0.241203 1.68104C0.149333 1.59264 0.0761084 1.48518 0.025934 1.36552C-0.0242404 1.24586 -0.0502935 1.1166 -0.0502935 0.985888C-0.0502935 0.855182 -0.0242404 0.725879 0.025934 0.606215C0.0761083 0.48655 0.149333 0.379141 0.241203 0.290741C0.432651 0.105085 0.684081 0.0019674 0.944917 0.00196739C1.20575 0.00196738 1.45686 0.105085 1.6483 0.290741L7.70528 6.32944C7.7959 6.41715 7.86815 6.52357 7.91761 6.642C7.96707 6.76043 7.99253 6.88833 7.99253 7.01761C7.99253 7.14688 7.96707 7.27474 7.91761 7.39317C7.86815 7.51159 7.7959 7.61802 7.70528 7.70573Z" fill="#959595"/>
</svg>
