<svg width="14" height="14" viewBox="0 0 14 14" fill="none" xmlns="http://www.w3.org/2000/svg">
<path d="M8.84736 5.15262C8.58281 4.88808 8.15387 4.88809 7.88932 5.15265C7.62486 5.41722 7.62486 5.84615 7.88941 6.11062L8.84736 5.15262ZM3.37479 7.47899C3.63934 7.21444 3.63934 6.78559 3.37479 6.52104C3.11025 6.25648 2.68134 6.25648 2.41679 6.52104L3.37479 7.47899ZM5.15266 8.84736C5.41722 9.11191 5.84615 9.11191 6.11062 8.84736C6.37517 8.58281 6.37517 8.15387 6.11062 7.88932L5.15266 8.84736ZM10.6252 6.52104C10.3607 6.78559 10.3607 7.21444 10.6252 7.47899C10.8898 7.74354 11.3186 7.74354 11.5832 7.47899L10.6252 6.52104ZM7.88941 6.11062C8.3066 6.52781 8.54099 7.09368 8.54099 7.68375H9.89581C9.89581 6.73438 9.51872 5.82393 8.84736 5.15262L7.88941 6.11062ZM8.54099 7.68375C8.54099 8.27373 8.3066 8.83959 7.88941 9.25679L8.84736 10.2148C9.51872 9.54356 9.89581 8.63312 9.89581 7.68375H8.54099ZM7.88941 9.25679L5.15266 11.9936L6.11062 12.9516L8.84736 10.2148L7.88941 9.25679ZM5.15266 11.9936C4.28383 12.8624 2.87522 12.8624 2.00642 11.9936L1.04842 12.9516C2.44631 14.3495 4.71274 14.3495 6.11062 12.9516L5.15266 11.9936ZM2.00642 11.9936C1.13763 11.1248 1.13763 9.71616 2.00642 8.84736L1.04842 7.88941C-0.349472 9.28722 -0.349472 11.5537 1.04842 12.9516L2.00642 11.9936ZM2.00642 8.84736L3.37479 7.47899L2.41679 6.52104L1.04842 7.88941L2.00642 8.84736ZM6.11062 7.88932C5.69342 7.47212 5.45903 6.90626 5.45903 6.31628H4.10418C4.10418 7.26565 4.48132 8.17609 5.15266 8.84736L6.11062 7.88932ZM5.45903 6.31628C5.45903 5.72621 5.69342 5.16039 6.11062 4.74318L5.15266 3.78515C4.48132 4.45643 4.10418 5.36691 4.10418 6.31628H5.45903ZM6.11062 4.74318L8.84736 2.00642L7.88941 1.04842L5.15266 3.78515L6.11062 4.74318ZM8.84736 2.00642C9.71616 1.13763 11.1248 1.13763 11.9936 2.00642L12.9516 1.04842C11.5537 -0.349472 9.28722 -0.349472 7.88941 1.04842L8.84736 2.00642ZM11.9936 2.00642C12.8624 2.87522 12.8624 4.28383 11.9936 5.15263L12.9516 6.11062C14.3495 4.71274 14.3495 2.44631 12.9516 1.04842L11.9936 2.00642ZM11.9936 5.15263L10.6252 6.52104L11.5832 7.47899L12.9516 6.11062L11.9936 5.15263Z" fill="white"/>
</svg>
