<svg width="15" height="15" viewBox="0 0 15 15" fill="none" xmlns="http://www.w3.org/2000/svg">
<path d="M9.47931 5.52066C9.19586 5.23723 8.73629 5.23724 8.45284 5.52069C8.16949 5.80416 8.16949 6.26374 8.45294 6.54709L9.47931 5.52066ZM3.61585 8.0132C3.8993 7.72975 3.8993 7.27027 3.61585 6.98682C3.33241 6.70338 2.87286 6.70338 2.58942 6.98682L3.61585 8.0132ZM5.52071 9.47931C5.80416 9.76276 6.26374 9.76276 6.54709 9.47931C6.83054 9.19586 6.83054 8.73629 6.54709 8.45284L5.52071 9.47931ZM11.3842 6.98682C11.1007 7.27027 11.1007 7.72975 11.3842 8.0132C11.6676 8.29665 12.1271 8.29665 12.4106 8.0132L11.3842 6.98682ZM8.45294 6.54709C8.89993 6.99408 9.15106 7.60037 9.15106 8.23258H10.6027C10.6027 7.2154 10.1986 6.23993 9.47931 5.52066L8.45294 6.54709ZM9.15106 8.23258C9.15106 8.86471 8.89993 9.47099 8.45294 9.91798L9.47931 10.9445C10.1986 10.2252 10.6027 9.24977 10.6027 8.23258H9.15106ZM8.45294 9.91798L5.52071 12.8503L6.54709 13.8767L9.47931 10.9445L8.45294 9.91798ZM5.52071 12.8503C4.58982 13.7812 3.0806 13.7812 2.14974 12.8503L1.1233 13.8767C2.62105 15.3744 5.04937 15.3744 6.54709 13.8767L5.52071 12.8503ZM2.14974 12.8503C1.21889 11.9194 1.21889 10.4102 2.14974 9.47931L1.1233 8.45294C-0.374434 9.9506 -0.374434 12.3789 1.1233 13.8767L2.14974 12.8503ZM2.14974 9.47931L3.61585 8.0132L2.58942 6.98682L1.1233 8.45294L2.14974 9.47931ZM6.54709 8.45284C6.10009 8.00585 5.84897 7.39956 5.84897 6.76744H4.39733C4.39733 7.78462 4.80142 8.76009 5.52071 9.47931L6.54709 8.45284ZM5.84897 6.76744C5.84897 6.13522 6.10009 5.52899 6.54709 5.08198L5.52071 4.05552C4.80142 4.77475 4.39733 5.75026 4.39733 6.76744H5.84897ZM6.54709 5.08198L9.47931 2.14974L8.45294 1.1233L5.52071 4.05552L6.54709 5.08198ZM9.47931 2.14974C10.4102 1.21889 11.9194 1.21889 12.8503 2.14974L13.8767 1.1233C12.3789 -0.374434 9.9506 -0.374434 8.45294 1.1233L9.47931 2.14974ZM12.8503 2.14974C13.7812 3.0806 13.7812 4.58982 12.8503 5.52067L13.8767 6.54709C15.3744 5.04937 15.3744 2.62105 13.8767 1.1233L12.8503 2.14974ZM12.8503 5.52067L11.3842 6.98682L12.4106 8.0132L13.8767 6.54709L12.8503 5.52067Z" fill="black"/>
</svg>
