<svg width="19" height="19" viewBox="0 0 19 19" fill="none" xmlns="http://www.w3.org/2000/svg">
<g clip-path="url(#clip0_5141_783)">
<path d="M18.1353 11.0706C18.1161 11.1423 18.0414 11.214 17.9113 11.2858C17.6239 11.4349 17.2583 11.7486 16.8144 12.2269C16.4469 12.6275 16.1406 13.0062 15.8957 13.3629C15.3044 14.2326 14.8465 15.1295 14.5221 16.0536C14.4339 16.303 14.3083 16.4293 14.1453 16.4326C14.0203 16.4375 13.6434 16.3557 13.0145 16.1872C12.6364 16.0858 12.4125 16.0216 12.343 15.9945C12.0143 15.868 11.8707 15.7271 11.9123 15.5719C12.0659 14.9987 12.4451 14.3239 13.0499 13.5474C13.4718 13.0078 13.9974 12.4234 14.6267 11.7943C15.1675 11.2566 15.4368 10.9918 15.4347 10.9997C15.4454 10.9599 15.3671 10.9176 15.1999 10.8728C14.9054 10.7939 14.4593 10.6914 13.8617 10.5654C13.2652 10.4355 12.8196 10.331 12.5251 10.2521C12.4256 10.2254 12.3892 10.1623 12.4158 10.0628C12.4468 9.9474 12.5098 9.79153 12.6051 9.59522C12.7139 9.36416 12.783 9.20989 12.8123 9.13241C12.8762 8.95757 12.9642 8.66118 13.0761 8.24325C13.1039 8.13977 13.2073 8.11202 13.3864 8.16001C13.5536 8.20481 13.7668 8.27686 14.026 8.37618C14.3815 8.5141 14.5946 8.59465 14.6651 8.61783C15.3359 8.85301 16.5031 9.1935 18.1669 9.6393C18.346 9.6873 18.4184 9.80696 18.3842 9.9983C18.3324 10.2873 18.2494 10.6448 18.1353 11.0706Z" fill="black"/>
<path d="M13.3422 3.65971C13.3768 3.81772 13.304 4.03144 13.1239 4.30089C12.7166 4.87765 12.3228 5.85164 11.9423 7.22289C11.6318 8.36723 11.418 9.40757 11.3011 10.3439C11.0271 12.621 11.0389 14.8171 11.3365 16.9322C11.4156 17.5036 11.299 17.8741 10.9866 18.0437C10.7493 18.1785 9.93711 18.3978 8.55013 18.7015C7.71618 18.8841 7.21829 18.984 7.05643 19.001C6.29297 19.0854 5.87375 18.9565 5.79877 18.6141C5.52193 17.35 5.58021 15.663 5.97366 13.5529C6.2501 12.0849 6.68261 10.4263 7.27116 8.57707C7.77994 6.99373 8.03625 6.21084 8.0401 6.2284C8.02087 6.14062 7.82692 6.1371 7.45823 6.21784C6.80863 6.36011 5.84192 6.60862 4.55811 6.96338C3.27237 7.30936 2.30469 7.55349 1.6551 7.69575C1.43564 7.74382 1.30188 7.65812 1.25381 7.43866C1.19806 7.18409 1.16409 6.81895 1.1519 6.34325C1.13119 5.78662 1.11039 5.4186 1.08949 5.23919C1.03809 4.83647 0.911458 4.17425 0.709594 3.25252C0.659609 3.02428 0.832129 2.86691 1.22716 2.7804C1.59585 2.69965 2.081 2.6256 2.68261 2.55824C3.50944 2.46915 4.00283 2.41169 4.16276 2.38586C5.69763 2.16931 8.29975 1.65923 11.9691 0.85561C12.3642 0.769097 12.6244 0.928287 12.7499 1.33318C12.9391 1.94491 13.1365 2.72042 13.3422 3.65971Z" fill="black"/>
<path d="M12.0599 1.4699C12.0054 1.18832 9.92663 1.99855 7.5403 2.46007C5.15398 2.92159 1.49936 2.93708 1.55382 3.21866C1.60828 3.50024 6.38036 3.47558 8.76668 3.01406C11.153 2.55254 12.1143 1.75148 12.0599 1.4699Z" fill="black"/>
</g>
<defs>
<clipPath id="clip0_5141_783">
<rect width="19" height="19" fill="white"/>
</clipPath>
</defs>
</svg>
