<svg width="14" height="15" viewBox="0 0 14 15" fill="none" xmlns="http://www.w3.org/2000/svg">
<g clip-path="url(#clip0_5211_3911)">
<path d="M13.5113 4.83645C13.6066 4.14421 13.1321 3.50446 12.4514 3.40751L8.39959 2.83038C7.71894 2.73344 7.08987 3.21601 6.99455 3.90824L6.4786 7.65486L5.96266 11.4015C5.86733 12.0937 6.34184 12.7335 7.02249 12.8304L11.0744 13.4076C11.755 13.5045 12.3841 13.0219 12.4794 12.3297L13.5113 4.83645Z" fill="white"/>
<path d="M9.364 9.68453C9.4221 9.71681 9.52511 9.73566 9.59475 9.7268C10.1638 9.63631 11.5043 9.0814 11.738 7.76129C11.8371 7.17802 11.4628 6.6249 10.8941 6.52076C10.5562 6.45888 10.2306 6.56799 9.99581 6.78891C9.85152 6.49856 9.58378 6.28079 9.24589 6.21891C8.67725 6.11477 8.13262 6.49961 8.02952 7.08212C7.79992 8.40296 8.86171 9.39787 9.364 9.68453Z" fill="#FE2C55"/>
<path d="M0.824836 3.38604C0.697737 2.46306 1.3304 1.61005 2.23792 1.48079L7.64039 0.711282C8.54793 0.58202 9.38668 1.22545 9.51378 2.14842L10.8896 12.1394C11.0167 13.0624 10.3841 13.9154 9.47653 14.0447L4.07403 14.8142C3.16651 14.9434 2.32778 14.3 2.20068 13.377L0.824836 3.38604Z" fill="white"/>
<path d="M6.35646 9.85017C6.279 9.8932 6.14165 9.91834 6.04879 9.90653C5.29004 9.78587 3.50273 9.04599 3.19108 7.28584C3.05906 6.50816 3.5581 5.77065 4.31629 5.63181C4.76681 5.5493 5.20097 5.69478 5.51405 5.98934C5.70643 5.60221 6.06342 5.31184 6.51394 5.22934C7.27213 5.09048 7.99831 5.60361 8.13578 6.38029C8.44191 8.14141 7.02618 9.46795 6.35646 9.85017Z" fill="#FE2C55"/>
</g>
<defs>
<clipPath id="clip0_5211_3911">
<rect width="14" height="15" fill="white"/>
</clipPath>
</defs>
</svg>
