<svg width="14" height="14" viewBox="0 0 14 14" fill="none" xmlns="http://www.w3.org/2000/svg">
<g clip-path="url(#clip0_5212_4001)">
<path d="M4.97396 0.245605C3.20431 0.245605 1.76562 1.68429 1.76562 3.45394C1.76562 5.18982 3.12326 6.59473 4.89291 6.65552C4.94694 6.64876 5.00098 6.64876 5.0415 6.65552C5.05501 6.65552 5.06176 6.65552 5.07527 6.65552C5.08203 6.65552 5.08203 6.65552 5.08878 6.65552C6.81791 6.59473 8.17554 5.18982 8.18229 3.45394C8.18229 1.68429 6.74361 0.245605 4.97396 0.245605Z" fill="white"/>
<path d="M8.40504 8.45147C6.52057 7.19515 3.44735 7.19515 1.54936 8.45147C0.691557 9.02559 0.21875 9.80235 0.21875 10.6331C0.21875 11.4639 0.691557 12.2339 1.54261 12.8013C2.48822 13.4362 3.73103 13.7537 4.97384 13.7537C6.21662 13.7537 7.45942 13.4362 8.40504 12.8013C9.25609 12.2272 9.7289 11.4572 9.7289 10.6196C9.72214 9.78884 9.25609 9.01884 8.40504 8.45147Z" fill="white"/>
<path d="M12.3954 3.8512C12.5035 5.16155 11.5714 6.30976 10.2813 6.46511C10.2745 6.46511 10.2745 6.46511 10.2678 6.46511H10.2475C10.207 6.46511 10.1665 6.46511 10.1327 6.47862C9.47751 6.51239 8.87637 6.30301 8.42383 5.91801C9.11953 5.29664 9.51804 4.36453 9.43699 3.35137C9.38971 2.80427 9.20058 2.30444 8.9169 1.87892C9.17357 1.75058 9.47076 1.66953 9.77471 1.64251C11.0986 1.52769 12.2806 2.51383 12.3954 3.8512Z" fill="white"/>
<path d="M13.7473 10.1005C13.6932 10.7557 13.2745 11.3231 12.572 11.7081C11.8966 12.0796 11.0455 12.2552 10.2012 12.2349C10.6875 11.7959 10.9712 11.2488 11.0252 10.6679C11.0928 9.83034 10.6943 9.02657 9.89726 8.38491C9.44471 8.02692 8.91787 7.74324 8.34375 7.53385C9.83647 7.10157 11.7142 7.39201 12.8692 8.32412C13.4906 8.82394 13.808 9.4521 13.7473 10.1005Z" fill="white"/>
</g>
<defs>
<clipPath id="clip0_5212_4001">
<rect width="14" height="14" fill="white"/>
</clipPath>
</defs>
</svg>
