<svg width="14" height="14" viewBox="0 0 14 14" fill="none" xmlns="http://www.w3.org/2000/svg">
<g clip-path="url(#clip0_5259_946)">
<path fill-rule="evenodd" clip-rule="evenodd" d="M13.5546 0.153932C13.395 0.049729 13.2075 -0.00393045 13.0168 -4.73397e-05C12.8545 -0.000394883 12.6945 0.0389533 12.551 0.114626C12.4075 0.190298 12.2849 0.300061 12.1938 0.434035L4.56397 11.424L1.61483 8.06397C1.42302 7.8876 1.16878 7.79438 0.908049 7.80488C0.647315 7.81539 0.401443 7.9288 0.224526 8.12002C0.0476083 8.31124 -0.0458645 8.56471 -0.0353298 8.82464C-0.0247952 9.08456 0.0888855 9.32964 0.280701 9.50601L3.8281 13.552L3.91376 13.65L4.00364 13.7479L4.04015 13.7759L4.11458 13.846L4.30698 13.9299L4.35051 13.9579L4.65245 14H4.66508C4.80112 14.0016 4.93602 13.975 5.06124 13.922C5.18646 13.869 5.29927 13.7907 5.39255 13.692L5.47259 13.5659L13.8383 1.51189C13.9093 1.40419 13.9582 1.28368 13.9823 1.15711C14.0065 1.03053 14.0053 0.900426 13.979 0.774293C13.9526 0.648161 13.9016 0.52852 13.8288 0.422072C13.756 0.315624 13.6628 0.224454 13.5546 0.153932Z" fill="#57B634"/>
</g>
<defs>
<clipPath id="clip0_5259_946">
<rect width="14" height="14" fill="white"/>
</clipPath>
</defs>
</svg>
