<svg width="12" height="12" viewBox="0 0 12 12" fill="none" xmlns="http://www.w3.org/2000/svg">
<g clip-path="url(#clip0_5259_895)">
<path fill-rule="evenodd" clip-rule="evenodd" d="M7.41329 5.97026L11.6853 1.69598C11.8742 1.50714 11.9805 1.25097 11.9806 0.983813C11.9807 0.716655 11.8747 0.460388 11.6858 0.271401C11.5923 0.177824 11.4813 0.10358 11.3591 0.052907C11.2369 0.00223423 11.106 -0.0238715 10.9737 -0.0239257C10.7065 -0.0240351 10.4503 0.08199 10.2613 0.270822L5.9893 4.54511L1.71734 0.270822C1.52835 0.0821448 1.27216 -0.023735 1.00512 -0.0235161C0.738066 -0.0232972 0.482031 0.0830018 0.293353 0.271989C0.104676 0.460976 -0.00119512 0.717174 -0.000976224 0.984223C-0.000757331 1.25127 0.105542 1.5073 0.294529 1.69598L4.56532 5.97026L0.294529 10.2434C0.114072 10.4338 0.0149919 10.6871 0.0184011 10.9494C0.0218104 11.2117 0.127422 11.4623 0.312766 11.648C0.498111 11.8336 0.748582 11.9396 1.01089 11.9435C1.27319 11.9473 1.52664 11.8487 1.71734 11.6685L5.9893 7.39425L10.2613 11.6685C10.4503 11.8574 10.7065 11.9634 10.9737 11.9633C11.2408 11.9632 11.497 11.8569 11.6858 11.668C11.8747 11.479 11.9807 11.2227 11.9806 10.9556C11.9805 10.6884 11.8742 10.4322 11.6853 10.2434L7.41329 5.97026Z" fill="#FF1F44"/>
</g>
<defs>
<clipPath id="clip0_5259_895">
<rect width="12" height="12" fill="white"/>
</clipPath>
</defs>
</svg>
