<svg width="30" height="30" viewBox="0 0 30 30" fill="none" xmlns="http://www.w3.org/2000/svg">
<circle cx="15" cy="15" r="15" fill="#E0E0E5"/>
<g clip-path="url(#clip0_3164_3080)">
<path fill-rule="evenodd" clip-rule="evenodd" d="M16.4128 14.9703L20.6848 10.696C20.8738 10.5071 20.98 10.251 20.9801 9.98381C20.9802 9.71665 20.8742 9.46039 20.6853 9.2714C20.5918 9.17782 20.4808 9.10358 20.3586 9.05291C20.2364 9.00223 20.1055 8.97613 19.9732 8.97607C19.706 8.97596 19.4498 9.08199 19.2608 9.27082L14.9888 13.5451L10.7169 9.27082C10.5279 9.08214 10.2717 8.97627 10.0046 8.97648C9.73758 8.9767 9.48154 9.083 9.29286 9.27199C9.10419 9.46098 8.99832 9.71717 8.99854 9.98422C8.99875 10.2513 9.10505 10.5073 9.29404 10.696L13.5648 14.9703L9.29404 19.2434C9.11358 19.4338 9.0145 19.6871 9.01791 19.9494C9.02132 20.2117 9.12693 20.4623 9.31228 20.648C9.49762 20.8336 9.74809 20.9396 10.0104 20.9435C10.2727 20.9473 10.5262 20.8487 10.7169 20.6685L14.9888 16.3943L19.2608 20.6685C19.4498 20.8574 19.706 20.9634 19.9732 20.9633C20.2403 20.9632 20.4965 20.8569 20.6853 20.668C20.8742 20.479 20.9802 20.2227 20.9801 19.9556C20.98 19.6884 20.8738 19.4322 20.6848 19.2434L16.4128 14.9703Z" fill="#8E8E92"/>
</g>
<defs>
<clipPath id="clip0_3164_3080">
<rect width="12" height="12" fill="white" transform="translate(9 9)"/>
</clipPath>
</defs>
</svg>
