<svg width="16" height="18" viewBox="0 0 16 18" fill="none" xmlns="http://www.w3.org/2000/svg">
<g clip-path="url(#clip0_5435_394)">
<path fill-rule="evenodd" clip-rule="evenodd" d="M7.99985 18L3.90753 15.067C1.55034 13.3776 0.151367 10.65 0.151367 7.74344V3.375L7.99985 0L15.8483 3.375V7.74344C15.8483 10.65 14.4494 13.3776 12.0922 15.067L7.99985 18ZM10.5826 6.47509C10.5826 7.84204 9.42632 8.95017 8.00004 8.95017C6.57376 8.95017 5.41753 7.84204 5.41753 6.47509C5.41753 5.10813 6.57376 4 8.00004 4C9.42632 4 10.5826 5.10813 10.5826 6.47509ZM11.9647 12.1041C12.0704 12.3154 11.9274 12.5529 11.6889 12.6046C9.26038 13.1318 6.73962 13.1318 4.31108 12.6046C4.07265 12.5529 3.92964 12.3154 4.03532 12.1041C4.32033 11.5343 4.78874 11.0336 5.39586 10.6563C6.14295 10.1919 7.05833 9.94021 8.00001 9.94021C8.9417 9.94021 9.85709 10.1919 10.6042 10.6563C11.2113 11.0336 11.6797 11.5343 11.9647 12.1041Z" fill="white"/>
</g>
<defs>
<clipPath id="clip0_5435_394">
<rect width="16" height="18" fill="white"/>
</clipPath>
</defs>
</svg>
