<svg width="14" height="15" viewBox="0 0 14 15" fill="none" xmlns="http://www.w3.org/2000/svg">
<g clip-path="url(#clip0_5435_413)">
<g clip-path="url(#clip1_5435_413)">
<path d="M13.5117 4.83633C13.6071 4.14409 13.1326 3.50434 12.4519 3.40739L8.40008 2.83026C7.71943 2.73331 7.09036 3.21588 6.99504 3.90812L6.47909 7.65474L5.96314 11.4014C5.86782 12.0936 6.34233 12.7334 7.02298 12.8303L11.0748 13.4074C11.7555 13.5044 12.3845 13.0218 12.4799 12.3296L13.5117 4.83633Z" fill="white"/>
<path d="M9.36302 9.68453C9.42112 9.71681 9.52414 9.73566 9.59378 9.7268C10.1628 9.63631 11.5033 9.0814 11.7371 7.76129C11.8361 7.17802 11.4618 6.6249 10.8932 6.52076C10.5553 6.45888 10.2296 6.56799 9.99484 6.78891C9.85055 6.49856 9.58281 6.28079 9.24491 6.21891C8.67627 6.11477 8.13164 6.49961 8.02854 7.08212C7.79894 8.40296 8.86074 9.39787 9.36302 9.68453Z" fill="#FE2C55"/>
</g>
<path d="M1.01624 3.69127C0.889143 2.7683 1.5218 1.91529 2.42933 1.78603L7.8318 1.01652C8.73933 0.887256 9.57809 1.53068 9.70519 2.45366L11.081 12.4446C11.2081 13.3676 10.5755 14.2207 9.66794 14.3499L4.26544 15.1194C3.35791 15.2487 2.51918 14.6052 2.39208 13.6823L1.01624 3.69127Z" fill="white"/>
<path d="M6.35549 9.85005C6.27802 9.89308 6.14067 9.91822 6.04782 9.90641C5.28906 9.78575 3.50175 9.04587 3.19011 7.28572C3.05808 6.50804 3.55713 5.77053 4.31532 5.63168C4.76583 5.54917 5.19999 5.69465 5.51307 5.98922C5.70545 5.60209 6.06244 5.31172 6.51297 5.22922C7.27116 5.09036 7.99733 5.60349 8.1348 6.38017C8.44093 8.14128 7.0252 9.46783 6.35549 9.85005Z" fill="#FE2C55"/>
</g>
<defs>
<clipPath id="clip0_5435_413">
<rect width="14" height="15" fill="white"/>
</clipPath>
<clipPath id="clip1_5435_413">
<rect width="9.95555" height="12.6562" fill="white" transform="matrix(-1 0 0 1 14.8296 1.59375)"/>
</clipPath>
</defs>
</svg>
