<svg width="20" height="20" viewBox="0 0 20 20" fill="none" xmlns="http://www.w3.org/2000/svg">
<circle cx="10" cy="10" r="10" fill="#35C759"/>
<g clip-path="url(#clip0_7138_3727)">
<path fill-rule="evenodd" clip-rule="evenodd" d="M14.6818 5.11C14.5678 5.03557 14.4339 4.99724 14.2976 5.00002C14.1817 4.99977 14.0674 5.02788 13.965 5.08193C13.8625 5.13598 13.7748 5.21438 13.7098 5.31008L8.25991 13.1601L6.15338 10.76C6.01637 10.6341 5.83477 10.5675 5.64854 10.575C5.4623 10.5825 5.28668 10.6635 5.16031 10.8001C5.03394 10.9367 4.96717 11.1177 4.97469 11.3034C4.98222 11.489 5.06342 11.6641 5.20043 11.7901L7.73429 14.6801L7.79547 14.75L7.85968 14.82L7.88575 14.84L7.93892 14.89L8.07634 14.95L8.10744 14.97L8.32311 15H8.33213C8.4293 15.0012 8.52566 14.9822 8.6151 14.9444C8.70454 14.9065 8.78512 14.8506 8.85175 14.78L8.90893 14.69L14.8845 6.07997C14.9351 6.00304 14.9701 5.91697 14.9873 5.82656C15.0045 5.73615 15.0037 5.64321 14.9849 5.55312C14.9661 5.46302 14.9296 5.37757 14.8776 5.30153C14.8256 5.2255 14.7591 5.16038 14.6818 5.11Z" fill="white"/>
</g>
<defs>
<clipPath id="clip0_7138_3727">
<rect width="10" height="10" fill="white" transform="translate(5 5)"/>
</clipPath>
</defs>
</svg>
