<svg width="12" height="12" viewBox="0 0 12 12" fill="none" xmlns="http://www.w3.org/2000/svg">
<g clip-path="url(#clip0_5624_3928)">
<path fill-rule="evenodd" clip-rule="evenodd" d="M7.41427 5.97026L11.6862 1.69598C11.8752 1.50714 11.9814 1.25097 11.9816 0.983813C11.9817 0.716655 11.8756 0.460388 11.6868 0.271401C11.5933 0.177824 11.4823 0.10358 11.3601 0.052907C11.2379 0.00223423 11.1069 -0.0238715 10.9746 -0.0239257C10.7075 -0.0240351 10.4512 0.08199 10.2622 0.270822L5.99028 4.54511L1.71832 0.270822C1.52933 0.0821448 1.27314 -0.023735 1.00609 -0.0235161C0.739043 -0.0232972 0.483007 0.0830018 0.29433 0.271989C0.105652 0.460976 -0.000218554 0.717174 3.38753e-07 0.984223C0.000219232 1.25127 0.106518 1.5073 0.295505 1.69598L4.56629 5.97026L0.295505 10.2434C0.115048 10.4338 0.0159685 10.6871 0.0193777 10.9494C0.0227869 11.2117 0.128398 11.4623 0.313743 11.648C0.499087 11.8336 0.749558 11.9396 1.01186 11.9435C1.27417 11.9473 1.52762 11.8487 1.71832 11.6685L5.99028 7.39425L10.2622 11.6685C10.4512 11.8574 10.7075 11.9634 10.9746 11.9633C11.2418 11.9632 11.498 11.8569 11.6868 11.668C11.8756 11.479 11.9817 11.2227 11.9816 10.9556C11.9814 10.6884 11.8752 10.4322 11.6862 10.2434L7.41427 5.97026Z" fill="#8E8E92"/>
</g>
<defs>
<clipPath id="clip0_5624_3928">
<rect width="12" height="12" fill="white"/>
</clipPath>
</defs>
</svg>
