<svg width="20" height="20" viewBox="0 0 20 20" fill="none" xmlns="http://www.w3.org/2000/svg">
<g clip-path="url(#clip0_5368_405)">
<path fill-rule="evenodd" clip-rule="evenodd" d="M9.0479 7.14282C11.1518 7.14282 12.8574 8.84844 12.8574 10.9523V15.7143C12.8574 17.8182 11.1518 19.5238 9.0479 19.5238H4.28599C2.18209 19.5238 0.47647 17.8182 0.47647 15.7143V10.9523C0.47647 8.84844 2.18209 7.14282 4.28599 7.14282H9.0479Z" fill="#007AFF"/>
<path fill-rule="evenodd" clip-rule="evenodd" d="M15.7149 0.476074C17.8188 0.476074 19.5244 2.18166 19.5244 4.2856V9.0475C19.5244 11.3036 17.847 12.857 15.7149 12.857C15.1889 12.857 14.7625 12.4306 14.7625 11.9046V10.9523C14.7625 7.79635 12.2041 5.23798 9.04822 5.23798H8.09584C7.56984 5.23798 7.14346 4.81158 7.14346 4.2856C7.14346 2.1535 8.69689 0.476074 10.953 0.476074H15.7149Z" fill="#007AFF"/>
</g>
<defs>
<clipPath id="clip0_5368_405">
<rect width="20" height="20" fill="white" transform="matrix(-1 0 0 1 20 0)"/>
</clipPath>
</defs>
</svg>
