<svg width="16" height="16" viewBox="0 0 16 16" fill="none" xmlns="http://www.w3.org/2000/svg">
<g clip-path="url(#clip0_5435_423)">
<path d="M4.33366 5.06675H2.13366C1.32699 5.06675 0.666992 4.40675 0.666992 3.60008V2.13341C0.666992 1.32675 1.32699 0.666748 2.13366 0.666748H4.33366C5.14033 0.666748 5.80033 1.32675 5.80033 2.13341V3.60008C5.80033 4.40675 5.14033 5.06675 4.33366 5.06675Z" fill="white"/>
<path d="M14.4531 4.33324H11.8131C11.3291 4.33324 10.9331 3.93724 10.9331 3.45324V2.2799C10.9331 1.7959 11.3291 1.3999 11.8131 1.3999H14.4531C14.9371 1.3999 15.3331 1.7959 15.3331 2.2799V3.45324C15.3331 3.93724 14.9371 4.33324 14.4531 4.33324Z" fill="white"/>
<path d="M14.4531 9.83324H11.8131C11.3291 9.83324 10.9331 9.43724 10.9331 8.95324V7.7799C10.9331 7.2959 11.3291 6.8999 11.8131 6.8999H14.4531C14.9371 6.8999 15.3331 7.2959 15.3331 7.7799V8.95324C15.3331 9.43724 14.9371 9.83324 14.4531 9.83324Z" fill="white"/>
<path opacity="0.96" d="M10.9333 8.91665C11.234 8.91665 11.4833 8.66732 11.4833 8.36665C11.4833 8.06598 11.234 7.81665 10.9333 7.81665H8.91667V3.41665H10.9333C11.234 3.41665 11.4833 3.16732 11.4833 2.86665C11.4833 2.56598 11.234 2.31665 10.9333 2.31665H5.8C5.49933 2.31665 5.25 2.56598 5.25 2.86665C5.25 3.16732 5.49933 3.41665 5.8 3.41665H7.81667V12.4C7.81667 13.5147 8.71867 14.4167 9.83333 14.4167H10.9333C11.234 14.4167 11.4833 14.1673 11.4833 13.8667C11.4833 13.566 11.234 13.3167 10.9333 13.3167H9.83333C9.32733 13.3167 8.91667 12.906 8.91667 12.4V8.91665H10.9333Z" fill="white"/>
<path d="M14.4531 15.3332H11.8131C11.3291 15.3332 10.9331 14.9372 10.9331 14.4532V13.2799C10.9331 12.7959 11.3291 12.3999 11.8131 12.3999H14.4531C14.9371 12.3999 15.3331 12.7959 15.3331 13.2799V14.4532C15.3331 14.9372 14.9371 15.3332 14.4531 15.3332Z" fill="white"/>
</g>
<defs>
<clipPath id="clip0_5435_423">
<rect width="16" height="16" fill="white"/>
</clipPath>
</defs>
</svg>
