<svg width="14" height="14" viewBox="0 0 14 14" fill="none" xmlns="http://www.w3.org/2000/svg">
<g clip-path="url(#clip0_5435_431)">
<path d="M12.2654 1.61122C10.8104 0.156217 9.38542 0.118717 7.89292 1.61122L6.98542 2.51872C6.91042 2.59372 6.88042 2.71372 6.91042 2.81872C7.48042 4.80622 9.07042 6.39622 11.0579 6.9662C11.0879 6.9737 11.1179 6.9812 11.1479 6.9812C11.2304 6.9812 11.3054 6.9512 11.3654 6.8912L12.2654 5.98372C13.0079 5.24872 13.3679 4.53622 13.3679 3.81622C13.3754 3.07372 13.0154 2.35372 12.2654 1.61122Z" fill="white"/>
<path d="M9.70772 7.6481C9.49022 7.5431 9.28022 7.4381 9.07772 7.3181C8.91272 7.2206 8.75522 7.1156 8.59772 7.0031C8.47022 6.9206 8.32022 6.8006 8.17772 6.6806C8.16272 6.6731 8.11022 6.6281 8.05022 6.5681C7.80272 6.35808 7.52522 6.08808 7.27772 5.78808C7.25522 5.77308 7.21772 5.72058 7.16522 5.65308C7.09022 5.56308 6.96272 5.41308 6.85022 5.24058C6.76022 5.12808 6.65522 4.96308 6.55772 4.79808C6.43772 4.59558 6.33272 4.39308 6.22772 4.18308C6.21182 4.14904 6.19645 4.11516 6.1816 4.08149C6.0709 3.8315 5.74487 3.75841 5.5516 3.95173L1.25524 8.2481C1.15774 8.3456 1.06774 8.5331 1.04524 8.6606L0.640239 11.5331C0.565239 12.0431 0.707739 12.5231 1.02274 12.8456C1.29274 13.1081 1.66774 13.2506 2.07274 13.2506C2.16274 13.2506 2.25274 13.2431 2.34274 13.2281L5.22274 12.8231C5.35774 12.8006 5.54522 12.7106 5.63522 12.6131L9.9262 8.32212C10.1209 8.12742 10.0475 7.79337 9.79427 7.6853C9.76577 7.67315 9.7369 7.6607 9.70772 7.6481Z" fill="white"/>
</g>
<defs>
<clipPath id="clip0_5435_431">
<rect width="14" height="14" fill="white"/>
</clipPath>
</defs>
</svg>
