<svg width="14" height="14" viewBox="0 0 14 14" fill="none" xmlns="http://www.w3.org/2000/svg">
<g clip-path="url(#clip0_5435_440)">
<path d="M9.4293 7.27064V10.0247C9.4293 10.2683 9.40223 10.4983 9.34133 10.7081C9.09097 11.7028 8.26543 12.3253 7.12863 12.3253H5.2881L3.24457 13.6854C2.94006 13.8952 2.53407 13.6719 2.53407 13.3065V12.3253C1.84387 12.3253 1.2687 12.0953 0.869465 11.696C0.463465 11.29 0.233398 10.7149 0.233398 10.0247V7.27064C0.233398 5.98497 1.03187 5.09854 2.2634 4.9835C2.35137 4.97674 2.43933 4.96997 2.53407 4.96997H7.12863C8.50903 4.96997 9.4293 5.89024 9.4293 7.27064Z" fill="white"/>
<path d="M10.8907 9.43607C11.7501 9.43607 12.4741 9.15187 12.9748 8.64437C13.4823 8.14363 13.7665 7.4196 13.7665 6.56023V3.10923C13.7665 1.51907 12.4809 0.233398 10.8907 0.233398H5.13902C3.54885 0.233398 2.26318 1.51907 2.26318 3.10923V3.61673C2.26318 3.8062 2.41205 3.95507 2.60152 3.95507H7.12842C8.96218 3.95507 10.4441 5.43696 10.4441 7.27073V9.09773C10.4441 9.2872 10.593 9.43607 10.7824 9.43607H10.8907Z" fill="white"/>
</g>
<defs>
<clipPath id="clip0_5435_440">
<rect width="14" height="14" fill="white"/>
</clipPath>
</defs>
</svg>
