<svg width="7" height="12" viewBox="0 0 7 12" fill="none" xmlns="http://www.w3.org/2000/svg">
<path fill-rule="evenodd" clip-rule="evenodd" d="M6.75 5.41148L1.47836 0.246969C1.31173 0.0881904 1.09319 4.77848e-08 0.866173 3.78616e-08C0.639157 2.79386e-08 0.420327 0.0881904 0.253702 0.246969C0.173743 0.322572 0.110013 0.414432 0.0663439 0.516773C0.0226751 0.619114 -3.18961e-08 0.729698 -3.67824e-08 0.841484C-4.16687e-08 0.95327 0.0226751 1.06382 0.0663439 1.16616C0.110013 1.2685 0.173743 1.3604 0.253702 1.436L4.93052 5.99998L0.253701 10.564C0.173742 10.6396 0.110012 10.7315 0.0663435 10.8338C0.0226746 10.9362 -4.82868e-07 11.0467 -4.87754e-07 11.1585C-4.92641e-07 11.2703 0.0226746 11.3809 0.0663435 11.4832C0.110012 11.5856 0.173742 11.6774 0.253701 11.753C0.420326 11.9118 0.639157 12 0.866173 12C1.09319 12 1.31173 11.9118 1.47836 11.753L6.75 6.58852C6.82887 6.51351 6.89175 6.42249 6.9348 6.32121C6.97784 6.21993 7 6.11054 7 5.99998C7 5.88942 6.97784 5.78007 6.9348 5.67879C6.89175 5.57751 6.82887 5.48649 6.75 5.41148Z" fill="#BAB9BD"/>
</svg>
