<svg width="14" height="13" viewBox="0 0 14 13" fill="none" xmlns="http://www.w3.org/2000/svg">
<g clip-path="url(#clip0_5435_436)">
<path d="M13.9767 4.93127C13.9247 4.78684 13.7899 4.68162 13.6278 4.65847L9.32413 4.04787L7.39585 0.233594C7.32367 0.091 7.16923 0 6.9997 0C6.83017 0 6.67595 0.091 6.60354 0.233594L4.67526 4.04787L0.371572 4.65867C0.209479 4.68162 0.0749473 4.78705 0.022666 4.93147C-0.0293965 5.07569 0.00975976 5.23494 0.124385 5.34402L3.2512 8.32122L2.51226 12.5267C2.48514 12.6803 2.55492 12.8349 2.69207 12.9242C2.76732 12.9736 2.85548 12.9986 2.94385 12.9986C3.01648 12.9986 3.08954 12.9815 3.1556 12.9478L6.99948 10.9736L10.8434 12.9478C10.9094 12.9815 10.9825 12.9986 11.0551 12.9986C11.1435 12.9986 11.2319 12.9736 11.3069 12.9242C11.444 12.8349 11.5138 12.6803 11.4867 12.5267L10.7478 8.32122L13.8746 5.34402C13.9894 5.23473 14.0288 5.07548 13.9767 4.93127Z" fill="white"/>
</g>
<defs>
<clipPath id="clip0_5435_436">
<rect width="14" height="13" fill="white"/>
</clipPath>
</defs>
</svg>
