<svg width="13" height="12" viewBox="0 0 13 12" fill="none" xmlns="http://www.w3.org/2000/svg">
<g clip-path="url(#clip0_5435_445)">
<path d="M12.362 7.15729C12.3479 7.21012 12.2928 7.26295 12.197 7.31586C11.9852 7.42572 11.7158 7.65687 11.3887 8.0093C11.1179 8.30448 10.8922 8.58352 10.7118 8.84635C10.2761 9.48719 9.93869 10.1481 9.69966 10.829C9.63467 11.0127 9.54212 11.1058 9.42202 11.1082C9.32991 11.1118 9.0522 11.0516 8.5888 10.9274C8.3102 10.8527 8.14522 10.8054 8.09401 10.7854C7.85181 10.6922 7.746 10.5884 7.77665 10.474C7.88983 10.0517 8.16924 9.55446 8.61488 8.9823C8.92575 8.5847 9.31304 8.15409 9.77673 7.69054C10.1752 7.29434 10.3736 7.09923 10.3721 7.10505C10.38 7.07572 10.3223 7.04455 10.1991 7.01154C9.98209 6.95341 9.65339 6.87788 9.21305 6.78504C8.77352 6.68932 8.44518 6.61232 8.22818 6.55419C8.15487 6.53451 8.12805 6.48802 8.14765 6.4147C8.17049 6.32968 8.21691 6.21483 8.28713 6.07018C8.3673 5.89992 8.41822 5.78625 8.43981 5.72916C8.48689 5.60033 8.55173 5.38194 8.63419 5.07399C8.65467 4.99774 8.73086 4.97729 8.86283 5.01265C8.98603 5.04566 9.14312 5.09875 9.33411 5.17194C9.59606 5.27356 9.75308 5.33291 9.80503 5.34999C10.2993 5.52329 11.1593 5.77417 12.3853 6.10266C12.5173 6.13803 12.5706 6.2262 12.5454 6.36718C12.5072 6.58012 12.4461 6.84354 12.362 7.15729Z" fill="white"/>
<path d="M7.99471 1.86461C8.01659 1.96883 7.97055 2.10979 7.85665 2.28752C7.59906 2.66794 7.35 3.31038 7.10935 4.21483C6.91298 4.96961 6.77776 5.65581 6.70383 6.27339C6.53054 7.77533 6.538 9.22384 6.72622 10.6189C6.77625 10.9958 6.7025 11.2402 6.50493 11.3521C6.35485 11.441 5.84122 11.5856 4.96403 11.7859C4.4366 11.9064 4.12171 11.9723 4.01934 11.9835C3.5365 12.0391 3.27136 11.9541 3.22394 11.7283C3.04886 10.8945 3.08572 9.78179 3.33455 8.39C3.50939 7.42173 3.78292 6.32774 4.15515 5.10802C4.47693 4.06368 4.63903 3.54729 4.64146 3.55888C4.6293 3.50098 4.50663 3.49866 4.27346 3.55191C3.86262 3.64575 3.25123 3.80966 2.43929 4.04366C1.62614 4.27186 1.01413 4.43288 0.603303 4.52672C0.464507 4.55842 0.379911 4.5019 0.34951 4.35714C0.314251 4.18923 0.292767 3.94839 0.285057 3.63463C0.27196 3.26748 0.258805 3.02474 0.245587 2.90641C0.213079 2.64078 0.132994 2.20399 0.00532626 1.59603C-0.0262864 1.44549 0.0828228 1.34169 0.332655 1.28463C0.565831 1.23137 0.872661 1.18252 1.25315 1.13809C1.77607 1.07933 2.08811 1.04143 2.18926 1.0244C3.15998 0.881563 4.80567 0.545122 7.1263 0.015069C7.37618 -0.0419936 7.54074 0.0630056 7.62012 0.330064C7.73977 0.733552 7.86462 1.24507 7.99471 1.86461Z" fill="white"/>
</g>
<defs>
<clipPath id="clip0_5435_445">
<rect width="13" height="12" fill="white"/>
</clipPath>
</defs>
</svg>
