<svg width="14" height="14" viewBox="0 0 14 14" fill="none" xmlns="http://www.w3.org/2000/svg">
<g clip-path="url(#clip0_5435_399)">
<path d="M4.97347 0.245605C3.20382 0.245605 1.76514 1.68429 1.76514 3.45394C1.76514 5.18982 3.12277 6.59473 4.89242 6.65552C4.94645 6.64876 5.00049 6.64876 5.04101 6.65552C5.05452 6.65552 5.06128 6.65552 5.07479 6.65552C5.08154 6.65552 5.08154 6.65552 5.08829 6.65552C6.81742 6.59473 8.17505 5.18982 8.1818 3.45394C8.1818 1.68429 6.74312 0.245605 4.97347 0.245605Z" fill="white"/>
<path d="M8.40553 8.45151C6.52105 7.1952 3.44783 7.1952 1.54985 8.45151C0.692045 9.02564 0.219238 9.80239 0.219238 10.6332C0.219238 11.464 0.692045 12.234 1.5431 12.8013C2.48871 13.4363 3.73152 13.7537 4.97433 13.7537C6.21711 13.7537 7.45991 13.4363 8.40553 12.8013C9.25658 12.2272 9.72939 11.4572 9.72939 10.6197C9.72263 9.78888 9.25658 9.01888 8.40553 8.45151Z" fill="white"/>
<path d="M12.3964 3.85132C12.5045 5.16167 11.5723 6.30988 10.2823 6.46523C10.2755 6.46523 10.2755 6.46523 10.2688 6.46523H10.2485C10.208 6.46523 10.1674 6.46523 10.1337 6.47874C9.47849 6.51251 8.87735 6.30313 8.4248 5.91813C9.12051 5.29676 9.51902 4.36465 9.43796 3.3515C9.39068 2.80439 9.20156 2.30457 8.91788 1.87904C9.17454 1.75071 9.47173 1.66965 9.77568 1.64264C11.0995 1.52781 12.2816 2.51395 12.3964 3.85132Z" fill="white"/>
<path d="M13.7463 10.1005C13.6922 10.7556 13.2735 11.323 12.571 11.708C11.8956 12.0795 11.0445 12.2551 10.2002 12.2348C10.6865 11.7958 10.9702 11.2487 11.0243 10.6678C11.0918 9.83028 10.6933 9.02651 9.89628 8.38484C9.44374 8.02686 8.9169 7.74318 8.34277 7.53379C9.83549 7.10151 11.7132 7.39195 12.8682 8.32405C13.4896 8.82388 13.8071 9.45204 13.7463 10.1005Z" fill="white"/>
</g>
<defs>
<clipPath id="clip0_5435_399">
<rect width="14" height="14" fill="white"/>
</clipPath>
</defs>
</svg>
