<svg width="12" height="14" viewBox="0 0 12 14" fill="none" xmlns="http://www.w3.org/2000/svg">
<path d="M6.00006 7.70027C8.13949 7.70027 9.87383 5.97651 9.87383 3.85014C9.87383 1.72376 8.13949 0 6.00006 0C3.86064 0 2.1263 1.72376 2.1263 3.85014C2.1263 5.97651 3.86064 7.70027 6.00006 7.70027Z" fill="white"/>
<path d="M11.5334 13.385C11.8911 13.3045 12.1055 12.935 11.947 12.6063C11.5195 11.72 10.8169 10.9412 9.90624 10.3542C8.78564 9.63189 7.41254 9.24033 6.00001 9.24033C4.58749 9.24033 3.21443 9.63189 2.09379 10.3542C1.18311 10.9412 0.480495 11.72 0.0529787 12.6063C-0.105544 12.935 0.10897 13.3045 0.466619 13.385C4.10943 14.205 7.89056 14.205 11.5334 13.385Z" fill="white"/>
</svg>
