<svg width="23" height="16" viewBox="0 0 23 16" fill="none" xmlns="http://www.w3.org/2000/svg">
<path d="M6.99099 8.80088C9.48374 8.80088 11.5045 6.83074 11.5045 4.40044C11.5045 1.97014 9.48374 0 6.99099 0C4.49824 0 2.47746 1.97014 2.47746 4.40044C2.47746 6.83074 4.49824 8.80088 6.99099 8.80088Z" fill="#007AFF"/>
<path d="M13.4381 15.2981C13.8549 15.2062 14.1048 14.7838 13.9201 14.4082C13.422 13.3952 12.6033 12.505 11.5423 11.8341C10.2366 11.0086 8.63674 10.5611 6.99093 10.5611C5.34513 10.5611 3.7453 11.0086 2.43959 11.8341C1.3785 12.505 0.55985 13.3951 0.0617282 14.4082C-0.122974 14.7838 0.126967 15.2062 0.543682 15.2981C4.78811 16.2353 9.19371 16.2353 13.4381 15.2981Z" fill="#007AFF"/>
<path d="M16.995 4C16.995 3.44772 17.4427 3 17.995 3C18.5473 3 18.995 3.44772 18.995 4V12C18.995 12.5523 18.5473 13 17.995 13C17.4427 13 16.995 12.5523 16.995 12V4Z" fill="#007AFF"/>
<path d="M21.995 7C22.5473 7 22.995 7.44772 22.995 8C22.995 8.55229 22.5473 9 21.995 9H13.995C13.4427 9 12.995 8.55229 12.995 8C12.995 7.44772 13.4427 7 13.995 7L21.995 7Z" fill="#007AFF"/>
</svg>
