<svg width="20" height="13" viewBox="0 0 20 13" fill="none" xmlns="http://www.w3.org/2000/svg">
<g clip-path="url(#clip0_5259_1056)">
<path d="M19.5886 2.12297C19.4741 1.73882 19.2512 1.38863 18.9419 1.1072C18.6327 0.825764 18.2478 0.622898 17.8257 0.518766C16.26 0.143066 10 0.143066 10 0.143066C10 0.143066 3.74 0.143066 2.17429 0.518766C1.31714 0.728066 0.642857 1.34297 0.411429 2.12297C0 3.54647 0 6.50007 0 6.50007C0 6.50007 0 9.46797 0.411429 10.8772C0.642857 11.6572 1.31857 12.2721 2.17429 12.4814C3.74 12.8571 10 12.8571 10 12.8571C10 12.8571 16.26 12.8571 17.8257 12.4814C18.2478 12.3772 18.6327 12.1744 18.9419 11.8929C19.2512 11.6115 19.4741 11.2613 19.5886 10.8772C20 9.45367 20 6.50007 20 6.50007C20 6.50007 20 3.54647 19.5886 2.12297Z" fill="#FF0000"/>
<path d="M7.98975 9.24298L13.1955 6.51558L7.98975 3.77258V9.24298Z" fill="white"/>
</g>
<defs>
<clipPath id="clip0_5259_1056">
<rect width="20" height="13" fill="white"/>
</clipPath>
</defs>
</svg>
